<?xml version="1.0" encoding="UTF-8"?>
<svg id="Layer_2" data-name="Layer 2" xmlns="http://www.w3.org/2000/svg" viewBox="0 0 4000 2559.57">
  <defs>
    <style>
      .cls-1 {
        fill: #ff5f00;
      }
    </style>
  </defs>
  <g id="Anchor_Shapes" data-name="Anchor Shapes">
    <path id="light" class="cls-1" d="M3961.73,0c-9.97,0-19.44,3.98-26.66,11.2l-1375.47,1375.47V38.1c0-23.85-19.46-38.1-38.27-38.1-9.97,0-19.44,3.98-26.67,11.2L11.24,2494.64c-11.08,11.08-14.24,26.97-8.24,41.45,6,14.48,19.46,23.48,35.14,23.48h1061.78c10.16,0,19.71-3.96,26.89-11.14l1096.07-1096.07c29.09-29.09,67.77-45.11,108.91-45.11h207.24l-1087.39,1087.39c-11.09,11.08-14.25,26.97-8.25,41.45,6,14.48,19.46,23.48,35.14,23.48h1061.78c10.16,0,19.71-3.96,26.9-11.14l1096.07-1096.07c29.09-29.09,67.77-45.11,108.91-45.11h207.24l-1087.39,1087.39c-11.08,11.08-14.24,26.97-8.24,41.45,6,14.48,19.46,23.48,35.14,23.48h1043.03c20.97,0,38.04-17.06,38.04-38.04V38.1c0-23.85-19.46-38.1-38.27-38.1Z"/>
  </g>
</svg>