<?xml version="1.0" encoding="UTF-8"?>
<svg id="Layer_2" data-name="Layer 2" xmlns="http://www.w3.org/2000/svg" viewBox="0 0 4000 4006.95">
  <defs>
    <style>
      .cls-1 {
        fill: #fff;
      }

      .cls-2 {
        fill: #ff5f00;
      }
    </style>
  </defs>
  <g id="Anchor_Shapes" data-name="Anchor Shapes">
    <g>
      <g id="logotype">
        <g>
          <path class="cls-1" d="M227.78,3759.59h-88.97v243.8h-49.83v-243.8H0v-45.38h227.78v45.38Z"/>
          <path class="cls-1" d="M449.2,3759.59v76.52h133.91v45.38h-133.91v76.52h143.25v45.38h-192.63v-289.18h192.63v45.38h-143.25Z"/>
          <path class="cls-1" d="M909.77,3760.03c-57.39,0-96.09,41.82-96.09,98.76s38.71,98.76,96.09,98.76c34.26,0,61.84-18.68,76.97-39.59l40.04,30.7c-24.91,36.03-65.84,58.28-117,58.28-85.86,0-145.48-62.29-145.48-148.15s59.62-148.14,145.48-148.14c51.16,0,92.09,22.24,117,58.27l-40.04,29.36c-15.13-21.35-42.71-38.26-76.97-38.26Z"/>
          <path class="cls-1" d="M1433.72,3714.21v289.18h-49.38v-120.57h-134.35v120.57h-49.38v-289.18h49.38v120.57h134.35v-120.57h49.38Z"/>
          <path class="cls-1" d="M1857.47,3714.21v289.18h-48.05l-133.02-203.31v203.31h-49.38v-289.18h48.05l133.02,203.31v-203.31h49.38Z"/>
          <path class="cls-1" d="M2040.37,3858.8c0-85.86,59.61-148.14,145.48-148.14s144.59,62.28,144.59,148.14-58.73,148.15-144.59,148.15-145.48-62.29-145.48-148.15ZM2280.6,3858.8c0-56.94-37.37-98.76-94.76-98.76s-96.09,41.82-96.09,98.76,38.7,98.76,96.09,98.76,94.76-41.82,94.76-98.76Z"/>
          <path class="cls-1" d="M2703.79,3958.01v45.38h-191.74v-289.18h49.38v243.8h142.36Z"/>
          <path class="cls-1" d="M2858.99,3858.8c0-85.86,59.62-148.14,145.48-148.14s144.59,62.28,144.59,148.14-58.73,148.15-144.59,148.15-145.48-62.29-145.48-148.15ZM3099.23,3858.8c0-56.94-37.37-98.76-94.76-98.76s-96.09,41.82-96.09,98.76,38.71,98.76,96.09,98.76,94.76-41.82,94.76-98.76Z"/>
          <path class="cls-1" d="M3465.51,4006.95c-85.86,0-145.48-62.29-145.48-148.15s59.61-148.14,145.48-148.14c51.16,0,92.09,22.24,117.01,57.83l-40.48,29.36c-18.24-25.36-46.71-37.81-76.52-37.81-57.39,0-96.09,41.82-96.09,98.76s38.7,98.76,96.09,98.76c40.93,0,75.63-24.91,82.3-68.51h-85.42v-45.38h141.92v21.8c-3.11,82.3-55.16,141.47-138.8,141.47Z"/>
          <path class="cls-1" d="M3897.23,3878.82v124.56h-49.38v-123.23l-103.21-165.95h56.94l70.74,113.44,70.74-113.44h56.94l-102.77,164.61Z"/>
        </g>
        <g>
          <path class="cls-1" d="M765.06,3523.15h-130.06l-53.55-420.79-168.31,420.79h-61.21l-168.31-420.79-53.55,420.79H0l91.81-642.65h122.41l168.31,413.13,168.31-413.13h122.41l91.81,642.65Z"/>
          <path class="cls-1" d="M1353.9,3048.81v474.34h-122.41v-50.68c-38.25,43.99-87.98,65.98-145.36,65.98-131.02,0-237.17-112.85-237.17-252.47s106.15-252.47,237.17-252.47c57.38,0,107.11,21.99,145.36,65.98v-50.68h122.41ZM1231.49,3285.98c0-71.73-58.34-130.06-130.06-130.06s-130.06,58.33-130.06,130.06,58.34,130.06,130.06,130.06,130.06-58.33,130.06-130.06Z"/>
          <path class="cls-1" d="M1494.29,3048.81h122.41v474.34h-122.41v-474.34Z"/>
          <path class="cls-1" d="M1494.29,2880.5h122.41v107.11h-122.41v-107.11Z"/>
          <path class="cls-1" d="M3294.51,2880.5h122.41v107.11h-122.41v-107.11Z"/>
          <path class="cls-1" d="M2199.78,3247.73v275.42h-122.41v-260.12c0-73.63-28.69-107.11-91.81-107.11-55.47,0-107.11,36.34-107.11,122.41v244.82h-122.41v-474.34h122.41v45.9c32.52-38.25,71.73-61.21,143.45-61.21,109.02,0,177.88,70.77,177.88,214.22Z"/>
          <path class="cls-1" d="M2352.13,3155.92h-61.21v-107.11h61.21v-168.31h122.41v168.31h91.81v107.11h-91.81v198.92c0,72.68,31.56,75.55,91.81,61.21v107.11c-23.91,9.57-49.73,15.3-89.9,15.3-87.03,0-124.32-62.16-124.32-150.14v-232.39Z"/>
          <path class="cls-1" d="M3154.11,3048.81v474.34h-122.41v-50.68c-38.25,43.99-87.98,65.98-145.36,65.98-131.02,0-237.17-112.85-237.17-252.47s106.15-252.47,237.17-252.47c57.38,0,107.11,21.99,145.36,65.98v-50.68h122.41ZM3031.7,3285.98c0-71.73-58.34-130.06-130.06-130.06s-130.06,58.33-130.06,130.06,58.34,130.06,130.06,130.06,130.06-58.33,130.06-130.06Z"/>
          <path class="cls-1" d="M3294.51,3048.81h122.41v474.34h-122.41v-474.34Z"/>
          <path class="cls-1" d="M4000,3247.73v275.42h-122.41v-260.12c0-73.63-28.69-107.11-91.81-107.11-55.47,0-107.11,36.34-107.11,122.41v244.82h-122.41v-474.34h122.41v45.9c32.52-38.25,71.72-61.21,143.45-61.21,109.02,0,177.88,70.77,177.88,214.22Z"/>
        </g>
      </g>
      <g id="dark">
        <g>
          <path class="cls-2" d="M4000,1399.42v1123.71c0,17.73-14.37,32.11-32.11,32.11h-1046.2c-28.6,0-42.93-34.58-22.7-54.81l1101-1101Z"/>
          <path class="cls-2" d="M4000,32.17v1367.25h-222.46c-42.58,0-83.41,16.91-113.51,47.02l-1099.39,1099.39c-6.02,6.02-14.19,9.4-22.7,9.4h-1065c-28.6,0-42.93-34.58-22.7-54.81L3945.19,9.47c20.23-20.23,54.81-5.9,54.81,22.7Z"/>
          <path class="cls-2" d="M2555.24,32.17v1367.25h-222.46c-42.58,0-83.41,16.91-113.51,47.02l-1099.39,1099.39c-6.02,6.02-14.19,9.4-22.7,9.4H32.17c-28.6,0-42.93-34.58-22.7-54.81L2500.43,9.47c20.23-20.23,54.81-5.9,54.81,22.7Z"/>
        </g>
      </g>
    </g>
  </g>
</svg>