<svg xmlns="http://www.w3.org/2000/svg" width="32" height="33" viewBox="0 0 32 33" fill="none"><path d="M5.33203 21.6793L5.34536 21.6645" stroke="#FAFAFA" stroke-width="1.5" stroke-linecap="round" stroke-linejoin="round"></path><path d="M5.33203 27.0133L5.34536 26.9985" stroke="#FAFAFA" stroke-width="1.5" stroke-linecap="round" stroke-linejoin="round"></path><path d="M5.33203 11.0133L5.34536 10.9985" stroke="#FAFAFA" stroke-width="1.5" stroke-linecap="round" stroke-linejoin="round"></path><path d="M5.33203 5.67935L5.34536 5.66453" stroke="#FAFAFA" stroke-width="1.5" stroke-linecap="round" stroke-linejoin="round"></path><path d="M5.33203 16.3463L5.34536 16.3315" stroke="#FAFAFA" stroke-width="1.5" stroke-linecap="round" stroke-linejoin="round"></path><path d="M10.668 27.0133L10.6813 26.9985" stroke="#FAFAFA" stroke-width="1.5" stroke-linecap="round" stroke-linejoin="round"></path><path d="M16 27.0133L16.0133 26.9985" stroke="white" stroke-width="1.5" stroke-linecap="round" stroke-linejoin="round"></path><path d="M21.332 27.0133L21.3454 26.9985" stroke="white" stroke-width="1.5" stroke-linecap="round" stroke-linejoin="round"></path><path d="M26.668 27.0133L26.6813 26.9985" stroke="white" stroke-width="1.5" stroke-linecap="round" stroke-linejoin="round"></path><path d="M26.668 21.6793L26.6813 21.6645" stroke="white" stroke-width="1.5" stroke-linecap="round" stroke-linejoin="round"></path><path d="M26.668 16.3463L26.6813 16.3315" stroke="white" stroke-width="1.5" stroke-linecap="round" stroke-linejoin="round"></path><path d="M26.668 11.0133L26.6813 10.9985" stroke="white" stroke-width="1.5" stroke-linecap="round" stroke-linejoin="round"></path><path d="M26.668 5.67935L26.6813 5.66453" stroke="white" stroke-width="1.5" stroke-linecap="round" stroke-linejoin="round"></path><path d="M21.332 5.67935L21.3454 5.66453" stroke="white" stroke-width="1.5" stroke-linecap="round" stroke-linejoin="round"></path><path d="M16 5.67935L16.0133 5.66453" stroke="white" stroke-width="1.5" stroke-linecap="round" stroke-linejoin="round"></path><path d="M10.668 5.67935L10.6813 5.66453" stroke="white" stroke-width="1.5" stroke-linecap="round" stroke-linejoin="round"></path><path d="M10.668 21.6667V11H21.3346V21.6667H10.668Z" stroke="white" stroke-width="1.5" stroke-linecap="round" stroke-linejoin="round"></path></svg>