<svg xmlns="http://www.w3.org/2000/svg" width="32" height="32" viewBox="0 0 32 32" fill="none"><path d="M14.668 17.9333V28H4.6013C4.26993 28 4.0013 27.7314 4.0013 27.4V17.3333H14.068C14.3993 17.3333 14.668 17.602 14.668 17.9333Z" stroke="#FAFAFA" stroke-width="1.5" stroke-linecap="round" stroke-linejoin="round"></path><path d="M14.668 28H18.668" stroke="#FAFAFA" stroke-width="1.5" stroke-linecap="round" stroke-linejoin="round"></path><path d="M4 17.333V13.333" stroke="#FAFAFA" stroke-width="1.5" stroke-linecap="round" stroke-linejoin="round"></path><path d="M8 4H4.6C4.26863 4 4 4.26863 4 4.6V8" stroke="#FAFAFA" stroke-width="1.5" stroke-linecap="round" stroke-linejoin="round"></path><path d="M18.668 4H13.3346" stroke="#FAFAFA" stroke-width="1.5" stroke-linecap="round" stroke-linejoin="round"></path><path d="M28 13.3337V18.667" stroke="#FAFAFA" stroke-width="1.5" stroke-linecap="round" stroke-linejoin="round"></path><path d="M24 4H27.4C27.7314 4 28 4.26863 28 4.6V8" stroke="white" stroke-width="1.5" stroke-linecap="round" stroke-linejoin="round"></path><path d="M24 28H27.4C27.7314 28 28 27.7314 28 27.4V24" stroke="white" stroke-width="1.5" stroke-linecap="round" stroke-linejoin="round"></path><path d="M14.668 13.333H18.668V17.333" stroke="white" stroke-width="1.5" stroke-linecap="round" stroke-linejoin="round"></path></svg>